<?xml version="1.0" encoding="UTF-8" standalone="no"?>
<!-- Created with Inkscape (http://www.inkscape.org/) -->

<svg
   width="157.03654mm"
   height="157.03654mm"
   viewBox="0 0 157.03654 157.03654"
   version="1.1"
   id="svg1"
   xmlns:inkscape="http://www.inkscape.org/namespaces/inkscape"
   xmlns:sodipodi="http://sodipodi.sourceforge.net/DTD/sodipodi-0.dtd"
   xmlns="http://www.w3.org/2000/svg"
   xmlns:svg="http://www.w3.org/2000/svg">
  <sodipodi:namedview
     id="namedview1"
     pagecolor="#ffffff"
     bordercolor="#000000"
     borderopacity="0.25"
     inkscape:showpageshadow="2"
     inkscape:pageopacity="0.0"
     inkscape:pagecheckerboard="0"
     inkscape:deskcolor="#d1d1d1"
     inkscape:document-units="mm" />
  <defs
     id="defs1">
    <inkscape:path-effect
       effect="powerclip"
       id="path-effect25"
       is_visible="true"
       lpeversion="1"
       inverse="true"
       flatten="false"
       hide_clip="false"
       message="Utilice la regla de relleno parimpar en el diálogo &lt;b&gt;Relleno y borde&lt;/b&gt; si el resultado no está aplanada después de convertir el recorte en trayectos." />
    <inkscape:path-effect
       effect="powerclip"
       id="path-effect13"
       is_visible="true"
       lpeversion="1"
       inverse="true"
       flatten="false"
       hide_clip="false"
       message="Utilice la regla de relleno parimpar en el diálogo &lt;b&gt;Relleno y borde&lt;/b&gt; si el resultado no está aplanada después de convertir el recorte en trayectos." />
    <clipPath
       clipPathUnits="userSpaceOnUse"
       id="clipPath31">
      <rect
         style="fill:#cccccc;stroke:none;stroke-width:0.399;stroke-linecap:round;stroke-dasharray:none"
         id="rect31"
         width="38.08353"
         height="39.597469"
         x="45.378792"
         y="60.561058"
         ry="9.2976761" />
    </clipPath>
    <clipPath
       clipPathUnits="userSpaceOnUse"
       id="clipPath32">
      <rect
         style="fill:#cccccc;stroke:none;stroke-width:0.399;stroke-linecap:round;stroke-dasharray:none"
         id="rect32"
         width="38.08353"
         height="39.597469"
         x="-3.2542529"
         y="65.145935"
         ry="9.2976761"
         d="M 6.0434232,65.145935 H 25.531601 c 5.150913,0 9.297677,4.146764 9.297677,9.297676 v 21.002117 c 0,5.150912 -4.146764,9.297672 -9.297677,9.297672 H 6.0434232 c -5.15091258,0 -9.2976761,-4.14676 -9.2976761,-9.297672 V 74.443611 c 0,-5.150912 4.14676352,-9.297676 9.2976761,-9.297676 z" />
    </clipPath>
    <clipPath
       clipPathUnits="userSpaceOnUse"
       id="clipPath33">
      <rect
         style="fill:#cccccc;stroke:none;stroke-width:0.399;stroke-linecap:round;stroke-dasharray:none"
         id="rect33"
         width="38.08353"
         height="39.597469"
         x="3.2928159"
         y="89.452942"
         ry="9.2976761"
         d="M 12.590492,89.452942 H 32.07867 c 5.150913,0 9.297676,4.146763 9.297676,9.297676 v 21.002122 c 0,5.15091 -4.146763,9.29767 -9.297676,9.29767 H 12.590492 c -5.1509125,0 -9.2976761,-4.14676 -9.2976761,-9.29767 V 98.750618 c 0,-5.150913 4.1467636,-9.297676 9.2976761,-9.297676 z" />
    </clipPath>
    <clipPath
       clipPathUnits="userSpaceOnUse"
       id="clipPath34">
      <rect
         style="fill:#cccccc;stroke:none;stroke-width:0.399;stroke-linecap:round;stroke-dasharray:none"
         id="rect34"
         width="38.08353"
         height="39.597469"
         x="45.378792"
         y="60.561058"
         ry="9.2976761" />
    </clipPath>
    <clipPath
       clipPathUnits="userSpaceOnUse"
       id="clipPath35">
      <rect
         style="fill:#cccccc;stroke:none;stroke-width:0.399;stroke-linecap:round;stroke-dasharray:none"
         id="rect35"
         width="38.08353"
         height="39.597469"
         x="45.378792"
         y="60.561058"
         ry="9.2976761" />
    </clipPath>
    <clipPath
       clipPathUnits="userSpaceOnUse"
       id="clipPath36">
      <rect
         style="fill:#cccccc;stroke:none;stroke-width:0.399;stroke-linecap:round;stroke-dasharray:none"
         id="rect36"
         width="38.08353"
         height="39.597469"
         x="45.378792"
         y="60.561058"
         ry="9.2976761" />
    </clipPath>
    <clipPath
       clipPathUnits="userSpaceOnUse"
       id="clipPath37">
      <rect
         style="fill:#cccccc;stroke:none;stroke-width:0.399;stroke-linecap:round;stroke-dasharray:none"
         id="rect37"
         width="38.08353"
         height="39.597469"
         x="45.378792"
         y="60.561058"
         ry="9.2976761" />
    </clipPath>
    <clipPath
       clipPathUnits="userSpaceOnUse"
       id="clipPath38">
      <rect
         style="fill:#cccccc;stroke:none;stroke-width:0.399;stroke-linecap:round;stroke-dasharray:none"
         id="rect38"
         width="38.08353"
         height="39.597469"
         x="45.378792"
         y="60.561058"
         ry="9.2976761"
         transform="scale(-1,1)" />
    </clipPath>
    <clipPath
       clipPathUnits="userSpaceOnUse"
       id="clipPath39">
      <rect
         style="fill:#cccccc;stroke:none;stroke-width:0.399;stroke-linecap:round;stroke-dasharray:none"
         id="rect39"
         width="38.08353"
         height="39.597469"
         x="45.378792"
         y="60.561058"
         ry="9.2976761"
         transform="scale(-1,1)" />
    </clipPath>
    <clipPath
       clipPathUnits="userSpaceOnUse"
       id="clipPath40">
      <rect
         style="fill:#cccccc;stroke:none;stroke-width:0.399;stroke-linecap:round;stroke-dasharray:none"
         id="rect40"
         width="38.08353"
         height="39.597469"
         x="45.378792"
         y="60.561058"
         ry="9.2976761"
         transform="scale(-1,1)" />
    </clipPath>
    <clipPath
       clipPathUnits="userSpaceOnUse"
       id="clipPath41">
      <rect
         style="fill:#cccccc;stroke:none;stroke-width:0.399;stroke-linecap:round;stroke-dasharray:none"
         id="rect41"
         width="38.08353"
         height="39.597469"
         x="45.378792"
         y="60.561058"
         ry="9.2976761"
         transform="scale(-1,1)" />
    </clipPath>
    <clipPath
       clipPathUnits="userSpaceOnUse"
       id="clipPath42">
      <rect
         style="fill:#cccccc;stroke:none;stroke-width:0.399;stroke-linecap:round;stroke-dasharray:none"
         id="rect42"
         width="38.08353"
         height="39.597469"
         x="45.378792"
         y="60.561058"
         ry="9.2976761" />
    </clipPath>
    <clipPath
       clipPathUnits="userSpaceOnUse"
       id="clipPath43">
      <rect
         style="fill:#cccccc;stroke:none;stroke-width:0.399;stroke-linecap:round;stroke-dasharray:none"
         id="rect43"
         width="38.08353"
         height="39.597469"
         x="45.378792"
         y="60.561058"
         ry="9.2976761" />
    </clipPath>
  </defs>
  <g
     inkscape:label="Capa 1"
     inkscape:groupmode="layer"
     id="layer1"
     transform="translate(209.71872,12.260471)">
    <rect
       style="fill:#2ca089;fill-opacity:1;stroke:none;stroke-width:1.33648;stroke-linecap:round;stroke-dasharray:none;stroke-opacity:1"
       id="rect45"
       width="157.03654"
       height="157.03654"
       x="-209.71872"
       y="-12.26047"
       inkscape:export-filename="mag_ico_web.webp"
       inkscape:export-xdpi="42.759998"
       inkscape:export-ydpi="42.759998"
       ry="28.833206" />
    <rect
       style="fill:#4d4d4d;stroke:none;stroke-width:3.51315;stroke-linecap:round;stroke-dasharray:none"
       id="rect4"
       width="17.17734"
       height="27.453566"
       x="52.214615"
       y="64.907173"
       ry="2.6484942"
       clip-path="url(#clipPath43)"
       transform="matrix(3.327714,0,0,3.2015264,-349.48851,-191.40024)" />
    <rect
       style="fill:#ffffff;stroke:none;stroke-width:3.06494;stroke-linecap:round;stroke-dasharray:none"
       id="rect4-0"
       width="14.593053"
       height="24.595881"
       x="53.449871"
       y="66.480087"
       ry="2.3728082"
       clip-path="url(#clipPath42)"
       transform="matrix(3.327714,0,0,3.2015264,-349.48851,-191.40024)" />
    <rect
       style="fill:#008080;stroke:none;stroke-width:0.328717;stroke-linecap:round;stroke-dasharray:none"
       id="rect5"
       width="2.7202003"
       height="2.216244"
       x="-57.766186"
       y="70.98967"
       ry="0.24781369"
       transform="matrix(-3.327714,0,0,3.2015264,-349.48851,-191.40024)"
       clip-path="url(#clipPath41)" />
    <rect
       style="fill:#008080;stroke:none;stroke-width:0.328717;stroke-linecap:round;stroke-dasharray:none"
       id="rect5-1"
       width="2.7202003"
       height="2.216244"
       x="-57.769981"
       y="80.069939"
       ry="0.24781369"
       transform="matrix(-3.327714,0,0,3.2015264,-349.48851,-191.40024)"
       clip-path="url(#clipPath40)" />
    <rect
       style="fill:#008080;stroke:none;stroke-width:0.328717;stroke-linecap:round;stroke-dasharray:none"
       id="rect5-7"
       width="2.7202003"
       height="2.216244"
       x="-57.766647"
       y="85.229027"
       ry="0.24781369"
       transform="matrix(-3.327714,0,0,3.2015264,-349.48851,-191.40024)"
       clip-path="url(#clipPath39)" />
    <rect
       style="fill:#008080;stroke:none;stroke-width:0.328717;stroke-linecap:round;stroke-dasharray:none"
       id="rect5-2"
       width="2.7202003"
       height="2.216244"
       x="-57.770058"
       y="75.747078"
       ry="0.24781369"
       transform="matrix(-3.327714,0,0,3.2015264,-349.48851,-191.40024)"
       clip-path="url(#clipPath38)" />
    <rect
       style="fill:#666666;stroke:none;stroke-width:0.328717;stroke-linecap:round;stroke-dasharray:none"
       id="rect6"
       width="7.9822383"
       height="0.75178367"
       x="58.37999"
       y="71.667061"
       ry="0.24781369"
       clip-path="url(#clipPath37)"
       transform="matrix(3.327714,0,0,3.2015264,-349.48851,-191.40024)" />
    <rect
       style="fill:#666666;stroke:none;stroke-width:0.328717;stroke-linecap:round;stroke-dasharray:none"
       id="rect6-2"
       width="7.9822383"
       height="0.75178367"
       x="58.355972"
       y="76.453751"
       ry="0.24781369"
       clip-path="url(#clipPath36)"
       transform="matrix(3.327714,0,0,3.2015264,-349.48851,-191.40024)" />
    <rect
       style="fill:#666666;stroke:none;stroke-width:0.328717;stroke-linecap:round;stroke-dasharray:none"
       id="rect6-3"
       width="7.9822383"
       height="0.75178367"
       x="58.360207"
       y="80.895584"
       ry="0.24781369"
       clip-path="url(#clipPath35)"
       transform="matrix(3.327714,0,0,3.2015264,-349.48851,-191.40024)" />
    <rect
       style="fill:#666666;stroke:none;stroke-width:0.328717;stroke-linecap:round;stroke-dasharray:none"
       id="rect6-9"
       width="7.9822383"
       height="0.75178367"
       x="58.371132"
       y="85.931015"
       ry="0.24781369"
       clip-path="url(#clipPath34)"
       transform="matrix(3.327714,0,0,3.2015264,-349.48851,-191.40024)" />
    <path
       style="fill:#ffffff;stroke:#2ca089;stroke-width:0.399;stroke-linecap:round;stroke-dasharray:none;stroke-opacity:1"
       id="path13"
       clip-path="url(#clipPath33)"
       transform="matrix(3.327714,0,0,3.2015264,-209.4384,-283.89838)"
       d="m 37.66624,108.50974 a 7.2604628,7.2087088 0 0 1 -7.260463,7.20871 7.2604628,7.2087088 0 0 1 -7.260463,-7.20871 7.2604628,7.2087088 0 0 1 7.260463,-7.20871 7.2604628,7.2087088 0 0 1 7.260463,7.20871 z"
       sodipodi:type="arc"
       sodipodi:ry="7.2087088"
       sodipodi:rx="7.2604628"
       sodipodi:cy="108.50974"
       sodipodi:cx="30.405777"
       inkscape:path-effect="#path-effect13" />
    <path
       style="fill:#2ca089;stroke:#ffffff;stroke-width:1.115;stroke-linecap:round;stroke-dasharray:none;stroke-opacity:1"
       id="rect24"
       width="31.683079"
       height="21.565884"
       x="7.6136808"
       y="92.338226"
       ry="10.782942"
       rx="11.104084"
       clip-path="url(#clipPath32)"
       sodipodi:type="rect"
       transform="matrix(3.327714,0,0,3.2015264,-187.65165,-206.07885)"
       d="m 18.717765,92.338226 h 9.474911 c 6.151662,0 11.104084,4.809192 11.104084,10.782944 0,5.97375 -4.952422,10.78294 -11.104084,10.78294 h -9.474911 c -6.151663,0 -11.1040842,-4.80919 -11.1040842,-10.78294 0,-5.973752 4.9524212,-10.782944 11.1040842,-10.782944 z"
       inkscape:path-effect="#path-effect25" />
    <ellipse
       style="fill:#2ca089;stroke:none;stroke-width:0.408012;stroke-linecap:round;stroke-dasharray:none"
       id="path25"
       cx="72.466309"
       cy="79.552963"
       rx="6.1557198"
       ry="6.008285"
       clip-path="url(#clipPath31)"
       transform="matrix(3.327714,0,0,3.2015264,-349.48851,-191.40024)" />
  </g>
</svg>
